<?xml version="1.0" encoding="UTF-8" standalone="no"?>
<svg
   xmlns:osb="http://www.openswatchbook.org/uri/2009/osb"
   xmlns:dc="http://purl.org/dc/elements/1.1/"
   xmlns:cc="http://creativecommons.org/ns#"
   xmlns:rdf="http://www.w3.org/1999/02/22-rdf-syntax-ns#"
   xmlns:svg="http://www.w3.org/2000/svg"
   xmlns="http://www.w3.org/2000/svg"
   xmlns:xlink="http://www.w3.org/1999/xlink"
   xmlns:sodipodi="http://sodipodi.sourceforge.net/DTD/sodipodi-0.dtd"
   xmlns:inkscape="http://www.inkscape.org/namespaces/inkscape"
   width="85mm"
   height="55mm"
   viewBox="0 0 85 55"
   version="1.1"
   id="svg8"
   inkscape:version="1.0.1 (0767f8302a, 2020-10-17)"
   sodipodi:docname="business-card-denis.svg"
   inkscape:export-filename="/home/denoldtimer/Inkscape/widepack/business-card-basic.png"
   inkscape:export-xdpi="96"
   inkscape:export-ydpi="96"
   shape-rendering="crispEdges">
  <defs
     id="defs2">
    <color-profile
       name="Artifex-CMYK-SWOP-Profile"
       xlink:href="file:///snap/inkscape/8049/usr/share/color/icc/ghostscript/default_cmyk.icc"
       id="color-profile3" />
    <linearGradient
       id="linearGradient2914"
       osb:paint="solid">
      <stop
         style="stop-color:#000000;stop-opacity:1;"
         offset="0"
         id="stop2912" />
    </linearGradient>
  </defs>
  <sodipodi:namedview
     id="base"
     pagecolor="#ffffff"
     bordercolor="#666666"
     borderopacity="1.0"
     inkscape:pageopacity="0.0"
     inkscape:pageshadow="2"
     inkscape:zoom="2.56"
     inkscape:cx="149.61855"
     inkscape:cy="101.68446"
     inkscape:document-units="mm"
     inkscape:current-layer="layer2"
     inkscape:document-rotation="0"
     showgrid="false"
     showguides="false"
     inkscape:guide-bbox="true"
     inkscape:window-width="1848"
     inkscape:window-height="1016"
     inkscape:window-x="72"
     inkscape:window-y="27"
     inkscape:window-maximized="1"
     inkscape:pagecheckerboard="true"
     showborder="false">
    <sodipodi:guide
       position="3,52"
       orientation="-1,0"
       id="guide10"
       inkscape:label=""
       inkscape:locked="false"
       inkscape:color="rgb(0,0,255)" />
    <sodipodi:guide
       position="3,52"
       orientation="0,1"
       id="guide12"
       inkscape:label=""
       inkscape:locked="false"
       inkscape:color="rgb(0,0,255)" />
    <sodipodi:guide
       position="82,49"
       orientation="-1,0"
       id="guide14"
       inkscape:label=""
       inkscape:locked="false"
       inkscape:color="rgb(0,0,255)" />
    <sodipodi:guide
       position="6,3"
       orientation="0,1"
       id="guide16"
       inkscape:label=""
       inkscape:locked="false"
       inkscape:color="rgb(0,0,255)" />
    <sodipodi:guide
       position="3,30"
       orientation="-1,0"
       id="guide937"
       inkscape:label=""
       inkscape:locked="false"
       inkscape:color="rgb(0,0,255)" />
    <sodipodi:guide
       position="50.011911,72.180565"
       orientation="1,0"
       id="guide954" />
    <sodipodi:guide
       position="23,24.717611"
       orientation="-1,0"
       id="guide956"
       inkscape:label=""
       inkscape:locked="false"
       inkscape:color="rgb(0,0,255)" />
    <sodipodi:guide
       position="14.262695,27.5"
       orientation="0,1"
       id="guide958"
       inkscape:label=""
       inkscape:locked="false"
       inkscape:color="rgb(0,0,255)" />
  </sodipodi:namedview>
  <metadata
     id="metadata5">
    <rdf:RDF>
      <cc:Work
         rdf:about="">
        <dc:format>image/svg+xml</dc:format>
        <dc:type
           rdf:resource="http://purl.org/dc/dcmitype/StillImage" />
        <dc:title />
      </cc:Work>
    </rdf:RDF>
  </metadata>
  <g
     inkscape:groupmode="layer"
     id="layer2"
     inkscape:label="Text">
    <text
       xml:space="preserve"
       style="font-style:normal;font-variant:normal;font-weight:normal;font-stretch:normal;font-size:12.7px;line-height:1.25;font-family:'Baloo 2';-inkscape-font-specification:'Baloo 2, ';fill:#000000;fill-opacity:1;stroke:none;stroke-width:0.264583"
       x="6.0805383"
       y="12.786461"
       id="text879"><tspan
         sodipodi:role="line"
         id="tspan877"
         x="6.0805383"
         y="12.786461"
         style="font-style:normal;font-variant:normal;font-weight:bold;font-stretch:normal;font-size:12.7px;font-family:'Baloo 2';-inkscape-font-specification:'Baloo 2 Bold';stroke:none;stroke-width:0.264583;stroke-opacity:1"><tspan
           style="font-size:12.7px;fill:#2a92bf;fill-opacity:1;stroke:none;stroke-width:0.264583;stroke-opacity:1"
           id="tspan881">Wide</tspan><tspan
           style="font-size:12.7px;fill:#00d400;fill-opacity:1;stroke:none;stroke-width:0.264583;stroke-opacity:1"
           id="tspan903">Pack</tspan></tspan></text>
    <text
       xml:space="preserve"
       style="font-size:4.9389px;line-height:0.65;font-family:'Fira Code';-inkscape-font-specification:'Fira Code';stroke-width:0.264583"
       x="6.265358"
       y="17.480713"
       id="text907"><tspan
         sodipodi:role="line"
         x="6.265358"
         y="17.480713"
         style="font-size:2.82222px;stroke-width:0.264583"
         id="tspan909">Dreefvelden 56a</tspan><tspan
         sodipodi:role="line"
         x="6.265358"
         y="20.690998"
         style="font-size:2.82222px;stroke-width:0.264583"
         id="tspan913">2860 St.Katelijne Waver</tspan></text>
    <text
       xml:space="preserve"
       style="font-size:3.175px;line-height:1.25;font-family:'Fira Code';-inkscape-font-specification:'Fira Code';stroke-width:0.264583"
       x="6.2899618"
       y="42.7033"
       id="text925"><tspan
         sodipodi:role="line"
         id="tspan923"
         x="6.2899618"
         y="42.7033"
         style="font-size:2.82222px;stroke-width:0.264583">denis @ widepack.be</tspan></text>
    <text
       xml:space="preserve"
       style="font-size:4.9389px;line-height:1.25;font-family:'Fira Code';-inkscape-font-specification:'Fira Code';stroke-width:0.264583"
       x="6.3478537"
       y="46.777073"
       id="text929"><tspan
         sodipodi:role="line"
         id="tspan927"
         x="6.3478537"
         y="46.777073"
         style="font-size:2.82222px;stroke-width:0.264583">M. +32 494 63 19 91</tspan></text>
    <text
       xml:space="preserve"
       style="font-size:4.9389px;line-height:1.15;font-family:'Fira Code';-inkscape-font-specification:'Fira Code';text-align:center;text-anchor:middle;stroke-width:0.264583"
       x="26.704168"
       y="32.262505"
       id="text962"><tspan
         sodipodi:role="line"
         id="tspan960"
         x="26.704168"
         y="32.262505"
         style="font-style:normal;font-variant:normal;font-weight:bold;font-stretch:normal;font-family:'Baloo 2';-inkscape-font-specification:'Baloo 2 Bold';stroke-width:0.264583">Denis Bernaerts</tspan></text>
    <g
       id="g75"
       transform="matrix(0.24010907,0,0,0.24010907,49.262709,16.833851)"
       style="stroke-width:4.16477">
      <g
         id="layer2-6"
         inkscape:label="Swirl"
         style="display:none;stroke-width:4.16477" />
      <g
         id="layer4"
         inkscape:label="c"
         style="display:none;stroke-width:4.16477">
        <path
           id="path1148"
           style="display:inline;fill:#666666;fill-opacity:1;fill-rule:evenodd;stroke-width:0.587233;paint-order:fill markers stroke"
           d="M 118.18375,50.333294 A 30.90531,36.313847 0 0 1 87.278459,86.647141 30.90531,36.313847 0 0 1 56.373149,50.333294 30.90531,36.313847 0 0 1 87.278459,14.019448 30.90531,36.313847 0 0 1 118.18375,50.333294 Z" />
      </g>
      <g
         id="layer5"
         inkscape:label="circle"
         style="display:none;stroke-width:4.16477">
        <ellipse
           style="fill:none;fill-rule:evenodd;stroke-width:0.587233;paint-order:fill markers stroke"
           id="path23"
           ry="22.735424"
           rx="19.788977"
           cy="38.689926"
           cx="50.808582" />
        <circle
           style="fill:#333333;fill-rule:evenodd;stroke-width:0.587233;paint-order:fill markers stroke"
           id="path29"
           sodipodi:type="arc"
           sodipodi:cx="68.813271"
           sodipodi:cy="68.68644"
           sodipodi:rx="66.189659"
           sodipodi:ry="67.542809"
           sodipodi:start="3.6515779"
           sodipodi:end="3.6418215"
           sodipodi:arc-type="slice"
           d="M 11.046132,35.714447 A 66.189659,67.542809 0 0 1 100.98371,9.6580913 66.189659,67.542809 0 0 1 126.73734,101.37048 66.189659,67.542809 0 0 1 36.925398,127.87423 66.189659,67.542809 0 0 1 10.733643,36.291128 L 68.813271,68.68644 Z" />
      </g>
    </g>
  </g>
  <g
     inkscape:groupmode="layer"
     id="layer7"
     inkscape:label="swirl"
     style="display:inline"
     sodipodi:insensitive="true">
    <g
       id="layer2-2"
       inkscape:label="Swirl"
       style="display:none;stroke-width:4.16477"
       transform="matrix(0.24010907,0,0,0.24010907,48.398974,18.69545)" />
    <g
       id="layer4-7"
       inkscape:label="c"
       style="display:none;stroke-width:4.16477"
       transform="matrix(0.24010907,0,0,0.24010907,48.398974,18.69545)">
      <path
         id="path1148-0"
         style="display:inline;fill:#666666;fill-opacity:1;fill-rule:evenodd;stroke-width:0.587233;paint-order:fill markers stroke"
         d="M 118.18375,50.333294 A 30.90531,36.313847 0 0 1 87.278459,86.647141 30.90531,36.313847 0 0 1 56.373149,50.333294 30.90531,36.313847 0 0 1 87.278459,14.019448 30.90531,36.313847 0 0 1 118.18375,50.333294 Z" />
    </g>
    <g
       id="layer5-9"
       inkscape:label="circle"
       style="display:none;stroke-width:4.16477"
       transform="matrix(0.24010907,0,0,0.24010907,48.398974,18.69545)">
      <ellipse
         style="fill:none;fill-rule:evenodd;stroke-width:0.587233;paint-order:fill markers stroke"
         id="path23-3"
         ry="22.735424"
         rx="19.788977"
         cy="38.689926"
         cx="50.808582" />
      <circle
         style="fill:#333333;fill-rule:evenodd;stroke-width:0.587233;paint-order:fill markers stroke"
         id="path29-6"
         sodipodi:type="arc"
         sodipodi:cx="68.813271"
         sodipodi:cy="68.68644"
         sodipodi:rx="66.189659"
         sodipodi:ry="67.542809"
         sodipodi:start="3.6515779"
         sodipodi:end="3.6418215"
         sodipodi:arc-type="slice"
         d="M 11.046132,35.714447 A 66.189659,67.542809 0 0 1 100.98371,9.6580913 66.189659,67.542809 0 0 1 126.73734,101.37048 66.189659,67.542809 0 0 1 36.925398,127.87423 66.189659,67.542809 0 0 1 10.733643,36.291128 L 68.813271,68.68644 Z" />
    </g>
    <g
       id="g1018"
       transform="translate(-0.35000185,-2.5872532)">
      <g
         id="layer3"
         inkscape:label="p-dark-outer"
         style="display:inline;stroke-width:4.16477"
         transform="matrix(0.24010907,0,0,0.24010907,48.398974,18.69545)">
        <path
           id="rect4787"
           style="display:inline;fill:#008000;fill-opacity:1;stroke-width:2.59803"
           d="M 73.74589,3.3724032 C 55.950409,3.5159598 37.973821,11.312865 32.717387,28.132132 c 5.248711,26.89901 32.204278,69.612687 17.262511,106.110318 21.765349,-3.90516 35.103929,-13.70398 39.983484,-19.99767 0.815864,-1.0523 1.395248,-2.00662 1.738,-2.81902 C 92.273263,104.70832 86.431202,96.411086 80.152733,86.756459 67.572045,81.786024 59.097199,67.931954 59.09717,52.33634 59.097069,32.280772 72.933743,16.022419 90.00226,16.022277 c 12.67735,1.84e-4 24.06891,9.097289 28.73519,22.947437 l 5.13354,-4.114477 C 117.23982,19.16373 102.98054,7.4297436 84.687339,4.2596877 81.124833,3.6423362 77.43929,3.3426085 73.74589,3.3724032 Z"
           sodipodi:nodetypes="sccsccccccss" />
      </g>
      <g
         id="g1262"
         inkscape:label="p-dark-inner"
         style="display:inline;stroke-width:4.16477"
         transform="matrix(0.24010907,0,0,0.24010907,48.398974,18.69545)">
        <path
           id="path1260"
           style="display:inline;fill:#008000;fill-opacity:1;fill-rule:evenodd;stroke-width:2.21946;paint-order:fill markers stroke"
           d="M 329.87109,52.986328 A 116.80747,137.24919 0 0 0 213.06445,190.23633 116.80747,137.24919 0 0 0 276.75586,312.47461 116.80747,137.24919 0 0 1 228.53125,201.375 116.80747,137.24919 0 0 1 345.33789,64.125 116.80747,137.24919 0 0 1 398.45898,79.140625 116.80747,137.24919 0 0 0 329.87109,52.986328 Z"
           transform="scale(0.26458333)" />
      </g>
      <g
         id="g1281"
         inkscape:label="w-dark-outer"
         style="display:inline;stroke-width:4.16477"
         transform="matrix(0.24010907,0,0,0.24010907,48.398974,18.69545)">
        <path
           id="path1279"
           style="display:inline;fill:#006680;fill-opacity:1;stroke-width:2.34513"
           d="m 123.933,34.790123 -5.36091,4.036446 c 1.49102,4.328356 2.2576,8.953981 2.25774,13.623459 -1.4e-4,20.055596 -13.83705,36.313729 -30.905605,36.313546 C 80.910469,88.763373 64.39046,84.076237 58.520814,76.045019 l 4.246317,23.233963 C 91.161739,119.74318 122.93694,107.90314 129.44688,79.514008 134.49658,57.492809 123.933,34.790123 123.933,34.790123 Z"
           sodipodi:nodetypes="ccccccsc" />
      </g>
      <g
         id="g1270"
         inkscape:label="w-dark-inner"
         style="display:inline;stroke-width:4.16477"
         transform="matrix(0.24010907,0,0,0.24010907,48.398974,18.69545)">
        <path
           id="ellipse1268"
           style="fill:#006680;fill-opacity:1;fill-rule:evenodd;stroke-width:2.21946;paint-order:fill markers stroke"
           d="m 176.3125,112.40625 a 103.24031,97.816631 0 0 0 -102.957031,97.81641 103.24031,97.816631 0 0 0 103.240231,97.8164 103.24031,97.816631 0 0 0 68.73242,-24.83008 103.24031,89.088137 0 0 1 -42.82031,8.0254 103.24031,89.088137 0 0 1 -103.240232,-89.0879 103.24031,89.088137 0 0 1 92.822262,-88.63281 103.24031,97.816631 0 0 0 -15.49414,-1.10742 103.24031,97.816631 0 0 0 -0.2832,0 z"
           transform="scale(0.26458333)" />
      </g>
      <g
         id="g1289"
         inkscape:label="p"
         style="display:inline;stroke-width:4.16477"
         transform="matrix(0.24010907,0,0,0.24010907,48.398974,18.69545)">
        <path
           id="path1287"
           style="display:inline;fill:#00d400;fill-opacity:1;stroke-width:2.59803"
           d="M 27.217367,16.155901 C 34.196988,42.909145 62.63136,96.157318 47.689593,132.65494 73.094123,128.09683 87.018381,115.50946 89.411077,109.83825 89.982958,103.12081 84.140897,94.823585 77.862428,85.168958 65.28174,80.198523 56.806894,66.344453 56.806865,50.748839 56.806764,30.693271 70.643438,14.434918 87.711955,14.434776 c 12.677345,1.86e-4 24.068905,9.097291 28.735185,22.947437 l 5.13354,-4.114477 C 114.94951,17.576229 100.69023,5.8422435 82.397034,2.6721876 68.53155,-1.7657536 40.999186,2.3848963 27.217367,16.155901 Z"
           sodipodi:nodetypes="cccccccccc" />
      </g>
      <g
         id="layer1"
         inkscape:label="w"
         style="display:inline;stroke-width:4.16477"
         transform="matrix(0.24010907,0,0,0.24010907,48.398974,18.69545)">
        <path
           id="path4753"
           style="display:inline;fill:#2a92bf;fill-opacity:1;stroke-width:2.34513"
           d="M 27.223337,16.163417 C -15.1042,50.838033 12.421445,107.85988 62.57667,98.904439 c 30.723263,17.558901 58.1146,7.973721 64.75353,-20.977931 5.0497,-22.0212 -5.51388,-44.723885 -5.51388,-44.723885 l -5.36091,4.036446 c 1.49102,4.328356 2.2576,8.953981 2.25774,13.623459 -1.4e-4,20.055597 -13.83705,36.31373 -30.905593,36.313546 C 78.75086,87.175872 69.976984,82.161046 64.105203,74.058976 23.416375,91.640166 13.249416,43.773955 32.974595,33.734076 Z"
           sodipodi:nodetypes="ccsccccccc" />
      </g>
    </g>
  </g>
</svg>
